<svg xmlns="http://www.w3.org/2000/svg" viewBox="0 0 24 24" fill="none">
  <path d="M12 23C11.6978 23 11.4 22.921 11.13 22.77L8.3815 21.1815C7.9805 20.9555 8.1825 20.888 8.3185 20.839C8.854 20.664 8.9615 20.622 9.496 20.321C9.5425 20.293 9.6025 20.307 9.649 20.335L11.801 21.593C11.858 21.628 11.9405 21.628 11.995 21.593L19.4985 17.2485C19.555 17.213 19.5935 17.1435 19.5935 17.074V8.3785C19.5935 8.309 19.555 8.2395 19.496 8.2025L11.9965 3.8595C11.94 3.824 11.8575 3.824 11.801 3.8595L4.306 8.2025C4.2455 8.241 4.207 8.3105 4.207 8.38V17.0755C4.207 17.1435 4.2455 17.213 4.306 17.2485L6.5955 18.55C7.5305 19.031 8.0835 18.4405 8.0835 17.845V9.2005C8.0835 9.089 8.175 9 8.2865 9H9.0965C9.2065 9 9.2995 9.089 9.2995 9.2005V17.8465C9.2995 19.153 8.566 19.9 7.341 19.9C6.919 19.9 6.5855 19.9 5.807 19.502L3.61 18.2485C3.0625 17.9385 2.75 17.3615 2.75 16.742V9.0465C2.75 8.4255 3.0625 7.8485 3.61 7.539L11.13 3.186C11.6645 2.896 12.3355 2.896 12.8665 3.186L20.3905 7.539C20.936 7.8485 21.25 8.4255 21.25 9.0465V16.742C21.25 17.3615 20.936 17.9385 20.3905 18.2485L12.8665 22.6015C12.5985 22.7465 12.3005 22.8195 12 22.8195V23Z" fill="#8CC84B"/>
  <path d="M14.6985 14.4835C11.6405 14.4835 10.8605 13.313 10.8605 12.3085C10.8605 12.198 10.952 12.109 11.0635 12.109H11.8855C11.983 12.109 12.066 12.1815 12.0795 12.2785C12.213 13.0275 12.564 13.3955 14.6985 13.3955C16.4065 13.3955 17.141 13.141 17.141 12.249C17.141 11.7705 16.942 11.417 14.2525 11.208C12.0165 11.033 10.637 10.5695 10.637 8.9855C10.637 7.526 11.874 6.6195 14.3285 6.6195C17.0545 6.6195 18.2085 7.476 18.343 9.2695C18.35 9.383 18.2585 9.489 18.145 9.489H17.3185C17.2255 9.489 17.144 9.425 17.126 9.335C16.858 8.323 16.2825 7.7075 14.3285 7.7075C12.1795 7.7075 11.902 8.41 11.902 8.962C11.902 9.634 12.213 9.824 14.7385 10.088C17.237 10.352 18.4025 10.7975 18.4025 12.3505C18.4025 13.9345 17.0835 14.9115 14.6985 14.9115V14.4835Z" fill="#8CC84B"/>
</svg> 