<svg xmlns="http://www.w3.org/2000/svg" viewBox="0 0 24 24" fill="none">
  <path d="M12 13.5C12.8284 13.5 13.5 12.8284 13.5 12C13.5 11.1716 12.8284 10.5 12 10.5C11.1716 10.5 10.5 11.1716 10.5 12C10.5 12.8284 11.1716 13.5 12 13.5Z" fill="#61DAFB"/>
  <path d="M12 22.5C11.7635 22.5 11.527 22.4594 11.2889 22.3789C10.5166 22.1263 9.83238 21.5136 9.24087 20.5964C8.7342 19.7946 8.30579 18.8185 7.96167 17.7115C7.82903 17.3041 7.70685 16.8816 7.59641 16.45C7.0263 16.2896 6.47353 16.1072 5.94353 15.9072C4.92654 15.5459 4.00916 15.1266 3.26173 14.6546C2.40973 14.1242 1.82813 13.5524 1.56317 12.9231C1.29821 12.2938 1.29821 11.7062 1.56317 11.0769C1.82813 10.4476 2.40973 9.87581 3.26173 9.34538C4.00916 8.87338 4.92654 8.45409 5.94353 8.09284C6.47353 7.89284 7.0263 7.7104 7.59641 7.55001C7.70685 7.11813 7.82935 6.69595 7.96167 6.28852C8.30579 5.18153 8.7342 4.20541 9.24087 3.4036C9.83238 2.48641 10.5166 1.87368 11.2889 1.62108C11.527 1.54063 11.7635 1.5 12 1.5C12.2365 1.5 12.473 1.54063 12.7111 1.62108C13.4834 1.87371 14.1676 2.48641 14.7591 3.4036C15.2658 4.20541 15.6942 5.18153 16.0383 6.28852C16.1709 6.69585 16.2931 7.11813 16.4036 7.55001C16.9737 7.7104 17.5265 7.89284 18.0565 8.09284C19.0735 8.45409 19.9908 8.87338 20.7383 9.34538C21.5903 9.87581 22.1719 10.4476 22.4368 11.0769C22.7018 11.7062 22.7018 12.2938 22.4368 12.9231C22.1719 13.5524 21.5903 14.1242 20.7383 14.6546C19.9908 15.1266 19.0735 15.5459 18.0565 15.9072C17.5265 16.1072 16.9737 16.2896 16.4036 16.45C16.2931 16.8819 16.1707 17.3041 16.0383 17.7115C15.6942 18.8185 15.2658 19.7946 14.7591 20.5964C14.1676 21.5136 13.4834 22.1263 12.7111 22.3789C12.473 22.4594 12.2365 22.5 12 22.5Z" stroke="#61DAFB" stroke-width="1.2"/>
  <path d="M8.67443 7.03139C6.56035 7.78431 5 8.9049 5 10.1818C5 12.0001 8.13399 13.4773 12 13.4773C15.866 13.4773 19 12.0001 19 10.1818C19 8.9049 17.4397 7.78431 15.3256 7.03139" stroke="#61DAFB" stroke-width="1.2" stroke-linecap="round"/>
  <path d="M15.3302 16.9686C17.4397 16.2157 19 15.0951 19 13.8182C19 12.0001 15.866 10.5228 12 10.5228C8.13399 10.5228 5 12.0001 5 13.8182C5 15.0951 6.56035 16.2157 8.66978 16.9686" stroke="#61DAFB" stroke-width="1.2" stroke-linecap="round"/>
</svg> 